<?xml version="1.0" encoding="utf-8"?>
<!-- Generator: Adobe Illustrator 22.0.1, SVG Export Plug-In . SVG Version: 6.00 Build 0)  -->
<svg version="1.1" id="Capa_1" xmlns="http://www.w3.org/2000/svg" xmlns:xlink="http://www.w3.org/1999/xlink" x="0px" y="0px"
	 viewBox="0 0 297.4 198.4" style="enable-background:new 0 0 297.4 198.4;" xml:space="preserve">
<style type="text/css">
	.st0{fill:#2BADBF;}
	.st1{fill:#184581;}
</style>
<g>
	<g>
		<path class="st0" d="M55.3,89.9H86v3.4H58.9v20.3h20.2v3.4H58.9v27h-3.7V89.9z"/>
		<path class="st0" d="M92.6,89.9h3.6v54h-3.6V89.9z"/>
		<path class="st0" d="M107.1,89.9h4.2l31.4,46.9h0.1V89.9h3.5v54h-3.1l-32.4-48.5h-0.1V144h-3.5V89.9z"/>
		<path class="st0" d="M157.2,89.9h3.6v54h-3.6V89.9z"/>
		<path class="st0" d="M184.9,93.3h-17.7v-3.4h39.1v3.4h-17.7V144h-3.6V93.3z"/>
		<path class="st0" d="M220.1,89.7h4.3l19.1,54.2h-3.9l-6.3-18.1H211l-6.3,18.1H201L220.1,89.7z M232.2,122.6l-10-28.8h-0.1
			l-9.9,28.8H232.2z"/>
	</g>
	<g>
		<path class="st1" d="M54.8,56.8h3c2.1,0,3,0.9,3,2.2c0,1.2-0.8,1.8-1.7,2.1v0c1.1,0.2,2,0.9,2,2.2c0,1.3-0.9,2.4-3,2.4h-3.3V56.8z
			 M57.7,60.8c1.5,0,2.4-0.6,2.4-1.8c0-1.2-0.7-1.7-2.4-1.7h-2.4v3.5H57.7z M58.1,65.1c1.6,0,2.4-0.7,2.4-1.8c0-1.3-1-1.9-2.7-1.9
			h-2.4v3.7H58.1z"/>
		<path class="st1" d="M64.8,61.7l-3-4.9h0.7l2.6,4.4l2.6-4.4h0.6l-3,4.9v3.9h-0.6V61.7z"/>
	</g>
	<g>
		<path class="st1" d="M134.9,56.6l-6.2,11.8c-0.1,0.3-0.5,0.3-0.7,0l-6.2-11.8c-0.1-0.1-0.2-0.2-0.3-0.2h-3c-0.2,0-0.3,0.2-0.2,0.4
			l9.8,18.4c0.1,0.3,0.5,0.3,0.6,0l9.8-18.4c0.1-0.2,0-0.4-0.2-0.4h-3C135.1,56.4,135,56.5,134.9,56.6"/>
		<path class="st1" d="M138.5,72.4l6.2-11.8c0.1-0.3,0.5-0.3,0.7,0l6.2,11.8c0.1,0.1,0.2,0.2,0.3,0.2h3c0.2,0,0.3-0.2,0.2-0.4
			l-9.8-18.4c-0.1-0.3-0.5-0.3-0.6,0l-9.8,18.4c-0.1,0.2,0,0.4,0.2,0.4h3C138.3,72.6,138.4,72.5,138.5,72.4"/>
		<path class="st1" d="M91.9,72.6l-5.6,0c-0.2,0-0.4-0.2-0.4-0.4v-5c0-0.2,0.2-0.4,0.4-0.4h5.6c2.7,0,3.9,0.8,3.9,2.9
			S94.6,72.6,91.9,72.6 M86.3,59.1h5.5c2,0,3.1,0.9,3.1,2.5c0,1.6-1,2.5-3.1,2.5l-5.5,0c-0.2,0-0.4-0.2-0.4-0.4v-4.2
			C85.9,59.3,86.1,59.1,86.3,59.1 M95.9,65.1c1.3-0.6,2.1-2.1,2.1-3.8c0-2.9-2.3-5-5.5-5h-9.3c-0.2,0-0.4,0.2-0.4,0.4V75
			c0,0.2,0.2,0.4,0.4,0.4h8.9c4.5,0,6.8-1.9,6.8-5.7C98.9,66,95.9,65.1,95.9,65.1"/>
		<path class="st1" d="M111,72.6l-5.6,0c-0.2,0-0.4-0.2-0.4-0.4v-5c0-0.2,0.2-0.4,0.4-0.4h5.6c2.7,0,3.9,0.8,3.9,2.9
			S113.7,72.6,111,72.6 M105.4,59.1h5.5c2,0,3.1,0.9,3.1,2.5c0,1.6-1,2.5-3.1,2.5l-5.5,0c-0.2,0-0.4-0.2-0.4-0.4v-4.2
			C105.1,59.3,105.2,59.1,105.4,59.1 M115.1,65.1c1.3-0.6,2.1-2.1,2.1-3.8c0-2.9-2.3-5-5.5-5h-9.3c-0.2,0-0.4,0.2-0.4,0.4V75
			c0,0.2,0.2,0.4,0.4,0.4h8.9c4.5,0,6.8-1.9,6.8-5.7C118,66,115.1,65.1,115.1,65.1"/>
	</g>
</g>
</svg>
